<mxfile host="app.diagrams.net" modified="2023-04-06T08:35:07.836Z" agent="Mozilla/5.0 (Macintosh; Intel Mac OS X 10_15_7) AppleWebKit/605.1.15 (KHTML, like Gecko) Version/16.1 Safari/605.1.15" etag="PUT49C24Wqqhm3T_Lv07" version="21.1.4" type="github">
  <diagram name="Seite-1" id="84JJWDG8ma4soKkQVWWN">
    <mxGraphModel dx="636" dy="371" grid="1" gridSize="10" guides="1" tooltips="1" connect="1" arrows="1" fold="1" page="1" pageScale="1" pageWidth="1100" pageHeight="850" math="0" shadow="0">
      <root>
        <mxCell id="0" />
        <mxCell id="1" parent="0" />
        <mxCell id="787iPWyd4pSy5UMx-Urj-5" value="" style="endArrow=none;html=1;rounded=0;entryX=0;entryY=0.5;entryDx=0;entryDy=0;entryPerimeter=0;exitX=0;exitY=0.5;exitDx=0;exitDy=0;exitPerimeter=0;strokeWidth=2;" edge="1" parent="1" source="787iPWyd4pSy5UMx-Urj-94" target="787iPWyd4pSy5UMx-Urj-80">
          <mxGeometry width="50" height="50" relative="1" as="geometry">
            <mxPoint x="842" y="228" as="sourcePoint" />
            <mxPoint x="860" y="228" as="targetPoint" />
          </mxGeometry>
        </mxCell>
        <mxCell id="787iPWyd4pSy5UMx-Urj-6" value="" style="pointerEvents=1;verticalLabelPosition=bottom;shadow=0;dashed=0;align=center;html=1;verticalAlign=top;shape=mxgraph.electrical.signal_sources.source;aspect=fixed;points=[[0.5,0,0],[1,0.5,0],[0.5,1,0],[0,0.5,0]];elSignalType=ac;strokeWidth=2;" vertex="1" parent="1">
          <mxGeometry x="930" y="244" width="50" height="50" as="geometry" />
        </mxCell>
        <mxCell id="787iPWyd4pSy5UMx-Urj-9" value="" style="pointerEvents=1;verticalLabelPosition=bottom;shadow=0;dashed=0;align=center;html=1;verticalAlign=top;shape=mxgraph.electrical.electro-mechanical.make_contact;rotation=-90;strokeWidth=2;" vertex="1" parent="1">
          <mxGeometry x="319" y="170" width="75" height="16" as="geometry" />
        </mxCell>
        <mxCell id="787iPWyd4pSy5UMx-Urj-10" value="" style="pointerEvents=1;verticalLabelPosition=bottom;shadow=0;dashed=0;align=center;html=1;verticalAlign=top;shape=mxgraph.electrical.electro-mechanical.make_contact;rotation=-90;strokeWidth=2;" vertex="1" parent="1">
          <mxGeometry x="570" y="170" width="75" height="16" as="geometry" />
        </mxCell>
        <mxCell id="787iPWyd4pSy5UMx-Urj-11" value="" style="pointerEvents=1;verticalLabelPosition=bottom;shadow=0;dashed=0;align=center;html=1;verticalAlign=top;shape=mxgraph.electrical.electro-mechanical.make_contact;rotation=-90;strokeWidth=2;" vertex="1" parent="1">
          <mxGeometry x="320" y="380" width="75" height="16" as="geometry" />
        </mxCell>
        <mxCell id="787iPWyd4pSy5UMx-Urj-12" value="" style="pointerEvents=1;verticalLabelPosition=bottom;shadow=0;dashed=0;align=center;html=1;verticalAlign=top;shape=mxgraph.electrical.electro-mechanical.make_contact;rotation=-90;strokeWidth=2;" vertex="1" parent="1">
          <mxGeometry x="570" y="380" width="75" height="16" as="geometry" />
        </mxCell>
        <mxCell id="787iPWyd4pSy5UMx-Urj-13" value="&lt;font style=&quot;font-size: 18px;&quot;&gt;&lt;font style=&quot;font-size: 18px;&quot;&gt;T&lt;/font&gt;&lt;sub&gt;&lt;font style=&quot;font-size: 18px;&quot;&gt;1&lt;/font&gt;&lt;/sub&gt;&lt;/font&gt;" style="text;html=1;strokeColor=none;fillColor=none;align=center;verticalAlign=middle;whiteSpace=wrap;rounded=0;strokeWidth=2;" vertex="1" parent="1">
          <mxGeometry x="310" y="170" width="60" height="30" as="geometry" />
        </mxCell>
        <mxCell id="787iPWyd4pSy5UMx-Urj-14" value="&lt;font style=&quot;font-size: 18px;&quot;&gt;&lt;font style=&quot;font-size: 18px;&quot;&gt;T&lt;/font&gt;&lt;sub&gt;&lt;font style=&quot;font-size: 18px;&quot;&gt;3&lt;/font&gt;&lt;/sub&gt;&lt;/font&gt;" style="text;html=1;strokeColor=none;fillColor=none;align=center;verticalAlign=middle;whiteSpace=wrap;rounded=0;strokeWidth=2;" vertex="1" parent="1">
          <mxGeometry x="560" y="170" width="60" height="30" as="geometry" />
        </mxCell>
        <mxCell id="787iPWyd4pSy5UMx-Urj-15" value="&lt;font style=&quot;font-size: 18px;&quot;&gt;&lt;font style=&quot;font-size: 18px;&quot;&gt;T&lt;/font&gt;&lt;sub&gt;&lt;font style=&quot;font-size: 18px;&quot;&gt;4&lt;/font&gt;&lt;/sub&gt;&lt;/font&gt;" style="text;html=1;strokeColor=none;fillColor=none;align=center;verticalAlign=middle;whiteSpace=wrap;rounded=0;strokeWidth=2;" vertex="1" parent="1">
          <mxGeometry x="560" y="380" width="60" height="30" as="geometry" />
        </mxCell>
        <mxCell id="787iPWyd4pSy5UMx-Urj-16" value="&lt;font style=&quot;font-size: 18px;&quot;&gt;&lt;font style=&quot;font-size: 18px;&quot;&gt;T&lt;/font&gt;&lt;sub&gt;&lt;font style=&quot;font-size: 18px;&quot;&gt;2&lt;/font&gt;&lt;/sub&gt;&lt;/font&gt;" style="text;html=1;strokeColor=none;fillColor=none;align=center;verticalAlign=middle;whiteSpace=wrap;rounded=0;strokeWidth=2;" vertex="1" parent="1">
          <mxGeometry x="310" y="380" width="60" height="30" as="geometry" />
        </mxCell>
        <mxCell id="787iPWyd4pSy5UMx-Urj-19" value="&lt;font style=&quot;font-size: 29px;&quot;&gt;V&lt;/font&gt;" style="verticalLabelPosition=middle;shadow=0;dashed=0;align=center;html=1;verticalAlign=middle;strokeWidth=2;shape=ellipse;aspect=fixed;fontSize=50;" vertex="1" parent="1">
          <mxGeometry x="1020" y="250" width="40" height="40" as="geometry" />
        </mxCell>
        <mxCell id="787iPWyd4pSy5UMx-Urj-20" value="A" style="verticalLabelPosition=middle;shadow=0;dashed=0;align=center;html=1;verticalAlign=middle;strokeWidth=2;shape=ellipse;aspect=fixed;fontSize=29;" vertex="1" parent="1">
          <mxGeometry x="650" y="294" width="36" height="36" as="geometry" />
        </mxCell>
        <mxCell id="787iPWyd4pSy5UMx-Urj-24" value="" style="endArrow=classic;html=1;rounded=0;entryX=1;entryY=0.5;entryDx=0;entryDy=0;exitX=1;exitY=0.5;exitDx=0;exitDy=0;exitPerimeter=0;strokeWidth=2;" edge="1" parent="1" source="787iPWyd4pSy5UMx-Urj-96" target="787iPWyd4pSy5UMx-Urj-20">
          <mxGeometry width="50" height="50" relative="1" as="geometry">
            <mxPoint x="762" y="312" as="sourcePoint" />
            <mxPoint x="620" y="330" as="targetPoint" />
          </mxGeometry>
        </mxCell>
        <mxCell id="787iPWyd4pSy5UMx-Urj-27" value="" style="endArrow=none;html=1;rounded=0;entryX=0;entryY=0.5;entryDx=0;entryDy=0;entryPerimeter=0;exitX=0;exitY=0.5;exitDx=0;exitDy=0;exitPerimeter=0;strokeWidth=2;" edge="1" parent="1" source="787iPWyd4pSy5UMx-Urj-96" target="787iPWyd4pSy5UMx-Urj-97">
          <mxGeometry width="50" height="50" relative="1" as="geometry">
            <mxPoint x="762" y="228" as="sourcePoint" />
            <mxPoint x="740" y="228" as="targetPoint" />
          </mxGeometry>
        </mxCell>
        <mxCell id="787iPWyd4pSy5UMx-Urj-28" value="" style="shape=waypoint;sketch=0;fillStyle=solid;size=6;pointerEvents=1;points=[];fillColor=none;resizable=0;rotatable=0;perimeter=centerPerimeter;snapToPoint=1;strokeWidth=2;" vertex="1" parent="1">
          <mxGeometry x="355" y="218" width="20" height="20" as="geometry" />
        </mxCell>
        <mxCell id="787iPWyd4pSy5UMx-Urj-29" value="" style="endArrow=none;html=1;rounded=0;entryX=1;entryY=0.5;entryDx=0;entryDy=0;entryPerimeter=0;exitX=0.4;exitY=0.75;exitDx=0;exitDy=0;exitPerimeter=0;strokeWidth=2;" edge="1" parent="1" source="787iPWyd4pSy5UMx-Urj-28" target="787iPWyd4pSy5UMx-Urj-97">
          <mxGeometry width="50" height="50" relative="1" as="geometry">
            <mxPoint x="540" y="380" as="sourcePoint" />
            <mxPoint x="640" y="228" as="targetPoint" />
          </mxGeometry>
        </mxCell>
        <mxCell id="787iPWyd4pSy5UMx-Urj-30" value="" style="endArrow=none;html=1;rounded=0;entryX=0.65;entryY=0.85;entryDx=0;entryDy=0;entryPerimeter=0;exitX=0;exitY=1;exitDx=0;exitDy=0;exitPerimeter=0;strokeWidth=2;" edge="1" parent="1" source="787iPWyd4pSy5UMx-Urj-9" target="787iPWyd4pSy5UMx-Urj-28">
          <mxGeometry width="50" height="50" relative="1" as="geometry">
            <mxPoint x="540" y="380" as="sourcePoint" />
            <mxPoint x="590" y="330" as="targetPoint" />
          </mxGeometry>
        </mxCell>
        <mxCell id="787iPWyd4pSy5UMx-Urj-31" value="" style="endArrow=none;html=1;rounded=0;exitX=1;exitY=1;exitDx=0;exitDy=0;exitPerimeter=0;strokeWidth=2;" edge="1" parent="1" source="787iPWyd4pSy5UMx-Urj-11">
          <mxGeometry width="50" height="50" relative="1" as="geometry">
            <mxPoint x="540" y="380" as="sourcePoint" />
            <mxPoint x="365" y="228" as="targetPoint" />
          </mxGeometry>
        </mxCell>
        <mxCell id="787iPWyd4pSy5UMx-Urj-32" value="" style="shape=waypoint;sketch=0;fillStyle=solid;size=6;pointerEvents=1;points=[];fillColor=none;resizable=0;rotatable=0;perimeter=centerPerimeter;snapToPoint=1;strokeWidth=2;" vertex="1" parent="1">
          <mxGeometry x="605" y="302" width="20" height="20" as="geometry" />
        </mxCell>
        <mxCell id="787iPWyd4pSy5UMx-Urj-33" value="" style="endArrow=none;html=1;rounded=0;entryX=0;entryY=0.5;entryDx=0;entryDy=0;exitX=0.5;exitY=0.65;exitDx=0;exitDy=0;exitPerimeter=0;strokeWidth=2;" edge="1" parent="1" source="787iPWyd4pSy5UMx-Urj-32" target="787iPWyd4pSy5UMx-Urj-20">
          <mxGeometry width="50" height="50" relative="1" as="geometry">
            <mxPoint x="540" y="380" as="sourcePoint" />
            <mxPoint x="590" y="330" as="targetPoint" />
          </mxGeometry>
        </mxCell>
        <mxCell id="787iPWyd4pSy5UMx-Urj-34" value="" style="endArrow=none;html=1;rounded=0;entryX=1;entryY=1;entryDx=0;entryDy=0;entryPerimeter=0;exitX=0.45;exitY=0.35;exitDx=0;exitDy=0;exitPerimeter=0;strokeWidth=2;" edge="1" parent="1" source="787iPWyd4pSy5UMx-Urj-32" target="787iPWyd4pSy5UMx-Urj-12">
          <mxGeometry width="50" height="50" relative="1" as="geometry">
            <mxPoint x="540" y="380" as="sourcePoint" />
            <mxPoint x="590" y="330" as="targetPoint" />
          </mxGeometry>
        </mxCell>
        <mxCell id="787iPWyd4pSy5UMx-Urj-35" value="" style="endArrow=none;html=1;rounded=0;entryX=0;entryY=1;entryDx=0;entryDy=0;entryPerimeter=0;exitX=0.45;exitY=0.3;exitDx=0;exitDy=0;exitPerimeter=0;strokeWidth=2;" edge="1" parent="1" source="787iPWyd4pSy5UMx-Urj-32" target="787iPWyd4pSy5UMx-Urj-10">
          <mxGeometry width="50" height="50" relative="1" as="geometry">
            <mxPoint x="540" y="380" as="sourcePoint" />
            <mxPoint x="590" y="330" as="targetPoint" />
          </mxGeometry>
        </mxCell>
        <mxCell id="787iPWyd4pSy5UMx-Urj-43" value="" style="endArrow=classic;html=1;rounded=0;strokeWidth=2;" edge="1" parent="1">
          <mxGeometry width="50" height="50" relative="1" as="geometry">
            <mxPoint x="1000" y="249" as="sourcePoint" />
            <mxPoint x="1000" y="289" as="targetPoint" />
          </mxGeometry>
        </mxCell>
        <mxCell id="787iPWyd4pSy5UMx-Urj-69" value="" style="endArrow=classic;html=1;rounded=0;exitX=0.5;exitY=1;exitDx=0;exitDy=0;fillColor=#e1d5e7;strokeColor=#9673a6;strokeWidth=3;" edge="1" parent="1" source="787iPWyd4pSy5UMx-Urj-20">
          <mxGeometry width="50" height="50" relative="1" as="geometry">
            <mxPoint x="540" y="550" as="sourcePoint" />
            <mxPoint x="630" y="480" as="targetPoint" />
            <Array as="points">
              <mxPoint x="668" y="480" />
            </Array>
          </mxGeometry>
        </mxCell>
        <mxCell id="787iPWyd4pSy5UMx-Urj-71" value="" style="endArrow=classic;html=1;rounded=0;exitX=1;exitY=0.5;exitDx=0;exitDy=0;fillColor=#d5e8d4;strokeColor=#82b366;strokeWidth=3;" edge="1" parent="1" source="787iPWyd4pSy5UMx-Urj-19">
          <mxGeometry width="50" height="50" relative="1" as="geometry">
            <mxPoint x="540" y="550" as="sourcePoint" />
            <mxPoint x="630" y="520" as="targetPoint" />
            <Array as="points">
              <mxPoint x="1090" y="270" />
              <mxPoint x="1090" y="520" />
            </Array>
          </mxGeometry>
        </mxCell>
        <mxCell id="787iPWyd4pSy5UMx-Urj-72" value="" style="pointerEvents=1;verticalLabelPosition=bottom;shadow=0;dashed=0;align=center;html=1;verticalAlign=top;shape=mxgraph.electrical.signal_sources.source;aspect=fixed;points=[[0.5,0,0],[1,0.5,0],[0.5,1,0],[0,0.5,0]];elSignalType=ideal;rotation=90;strokeWidth=2;" vertex="1" parent="1">
          <mxGeometry x="130" y="262" width="60" height="60" as="geometry" />
        </mxCell>
        <mxCell id="787iPWyd4pSy5UMx-Urj-73" value="" style="endArrow=none;html=1;rounded=0;exitX=1;exitY=0.5;exitDx=0;exitDy=0;exitPerimeter=0;entryX=0;entryY=1;entryDx=0;entryDy=0;entryPerimeter=0;strokeWidth=2;" edge="1" parent="1" source="787iPWyd4pSy5UMx-Urj-72" target="787iPWyd4pSy5UMx-Urj-12">
          <mxGeometry width="50" height="50" relative="1" as="geometry">
            <mxPoint x="490" y="410" as="sourcePoint" />
            <mxPoint x="540" y="360" as="targetPoint" />
            <Array as="points">
              <mxPoint x="160" y="426" />
            </Array>
          </mxGeometry>
        </mxCell>
        <mxCell id="787iPWyd4pSy5UMx-Urj-77" value="" style="endArrow=none;html=1;rounded=0;entryX=0.5;entryY=0;entryDx=0;entryDy=0;entryPerimeter=0;exitX=0.5;exitY=0;exitDx=0;exitDy=0;strokeWidth=2;" edge="1" parent="1" source="787iPWyd4pSy5UMx-Urj-19" target="787iPWyd4pSy5UMx-Urj-6">
          <mxGeometry width="50" height="50" relative="1" as="geometry">
            <mxPoint x="580" y="360" as="sourcePoint" />
            <mxPoint x="630" y="310" as="targetPoint" />
            <Array as="points">
              <mxPoint x="1040" y="230" />
              <mxPoint x="955" y="230" />
            </Array>
          </mxGeometry>
        </mxCell>
        <mxCell id="787iPWyd4pSy5UMx-Urj-78" value="" style="endArrow=none;html=1;rounded=0;entryX=0.5;entryY=1;entryDx=0;entryDy=0;entryPerimeter=0;exitX=0.5;exitY=1;exitDx=0;exitDy=0;strokeWidth=2;" edge="1" parent="1" source="787iPWyd4pSy5UMx-Urj-19" target="787iPWyd4pSy5UMx-Urj-6">
          <mxGeometry width="50" height="50" relative="1" as="geometry">
            <mxPoint x="580" y="360" as="sourcePoint" />
            <mxPoint x="630" y="310" as="targetPoint" />
            <Array as="points">
              <mxPoint x="1040" y="310" />
              <mxPoint x="955" y="310" />
            </Array>
          </mxGeometry>
        </mxCell>
        <mxCell id="787iPWyd4pSy5UMx-Urj-80" value="" style="pointerEvents=1;verticalLabelPosition=bottom;shadow=0;dashed=0;align=center;html=1;verticalAlign=top;shape=mxgraph.electrical.resistors.resistor_1;rotation=90;strokeWidth=2;" vertex="1" parent="1">
          <mxGeometry x="840.5" y="264" width="84" height="12" as="geometry" />
        </mxCell>
        <mxCell id="787iPWyd4pSy5UMx-Urj-84" value="" style="endArrow=none;html=1;rounded=0;entryX=1;entryY=0.5;entryDx=0;entryDy=0;entryPerimeter=0;exitX=1;exitY=0.5;exitDx=0;exitDy=0;exitPerimeter=0;strokeWidth=2;" edge="1" parent="1" source="787iPWyd4pSy5UMx-Urj-94" target="787iPWyd4pSy5UMx-Urj-80">
          <mxGeometry width="50" height="50" relative="1" as="geometry">
            <mxPoint x="842" y="312" as="sourcePoint" />
            <mxPoint x="640" y="320" as="targetPoint" />
            <Array as="points" />
          </mxGeometry>
        </mxCell>
        <mxCell id="787iPWyd4pSy5UMx-Urj-89" value="Osziloscope" style="whiteSpace=wrap;html=1;aspect=fixed;" vertex="1" parent="1">
          <mxGeometry x="550" y="460" width="80" height="80" as="geometry" />
        </mxCell>
        <mxCell id="787iPWyd4pSy5UMx-Urj-90" value="" style="pointerEvents=1;fillColor=strokeColor;verticalLabelPosition=bottom;shadow=0;dashed=0;align=center;html=1;verticalAlign=top;shape=mxgraph.electrical.diodes.schottky_diode;strokeWidth=2;" vertex="1" parent="1">
          <mxGeometry x="200" y="90" width="100" height="60" as="geometry" />
        </mxCell>
        <mxCell id="787iPWyd4pSy5UMx-Urj-91" value="" style="endArrow=none;html=1;rounded=0;entryX=0;entryY=0.5;entryDx=0;entryDy=0;entryPerimeter=0;exitX=0;exitY=0.5;exitDx=0;exitDy=0;exitPerimeter=0;strokeWidth=2;" edge="1" parent="1" source="787iPWyd4pSy5UMx-Urj-72" target="787iPWyd4pSy5UMx-Urj-90">
          <mxGeometry width="50" height="50" relative="1" as="geometry">
            <mxPoint x="290" y="250" as="sourcePoint" />
            <mxPoint x="340" y="200" as="targetPoint" />
            <Array as="points">
              <mxPoint x="160" y="120" />
            </Array>
          </mxGeometry>
        </mxCell>
        <mxCell id="787iPWyd4pSy5UMx-Urj-92" value="" style="endArrow=none;html=1;rounded=0;entryX=1;entryY=1;entryDx=0;entryDy=0;entryPerimeter=0;exitX=1;exitY=0.5;exitDx=0;exitDy=0;exitPerimeter=0;strokeWidth=2;" edge="1" parent="1" source="787iPWyd4pSy5UMx-Urj-90" target="787iPWyd4pSy5UMx-Urj-10">
          <mxGeometry width="50" height="50" relative="1" as="geometry">
            <mxPoint x="290" y="250" as="sourcePoint" />
            <mxPoint x="340" y="200" as="targetPoint" />
            <Array as="points">
              <mxPoint x="616" y="120" />
            </Array>
          </mxGeometry>
        </mxCell>
        <mxCell id="787iPWyd4pSy5UMx-Urj-93" value="" style="endArrow=none;html=1;rounded=0;entryX=1;entryY=1;entryDx=0;entryDy=0;entryPerimeter=0;strokeWidth=2;" edge="1" parent="1" target="787iPWyd4pSy5UMx-Urj-9">
          <mxGeometry width="50" height="50" relative="1" as="geometry">
            <mxPoint x="364" y="120" as="sourcePoint" />
            <mxPoint x="340" y="220" as="targetPoint" />
          </mxGeometry>
        </mxCell>
        <mxCell id="787iPWyd4pSy5UMx-Urj-94" value="" style="pointerEvents=1;verticalLabelPosition=bottom;shadow=0;dashed=0;align=center;html=1;verticalAlign=top;shape=mxgraph.electrical.resistors.resistor_1;rotation=90;strokeWidth=2;fillColor=#000000;" vertex="1" parent="1">
          <mxGeometry x="790" y="264" width="84" height="12" as="geometry" />
        </mxCell>
        <mxCell id="787iPWyd4pSy5UMx-Urj-95" value="" style="endArrow=none;html=1;rounded=0;strokeWidth=3;" edge="1" parent="1">
          <mxGeometry width="50" height="50" relative="1" as="geometry">
            <mxPoint x="818" y="310" as="sourcePoint" />
            <mxPoint x="818" y="230" as="targetPoint" />
          </mxGeometry>
        </mxCell>
        <mxCell id="787iPWyd4pSy5UMx-Urj-96" value="" style="pointerEvents=1;verticalLabelPosition=bottom;shadow=0;dashed=0;align=center;html=1;verticalAlign=top;shape=mxgraph.electrical.resistors.resistor_1;rotation=90;strokeWidth=2;fillColor=#000000;" vertex="1" parent="1">
          <mxGeometry x="760" y="264" width="84" height="12" as="geometry" />
        </mxCell>
        <mxCell id="787iPWyd4pSy5UMx-Urj-97" value="" style="pointerEvents=1;verticalLabelPosition=bottom;shadow=0;dashed=0;align=center;html=1;verticalAlign=top;shape=mxgraph.electrical.resistors.resistor_1;rotation=-180;strokeWidth=2;fillColor=#FF9933;strokeColor=#ff9300;" vertex="1" parent="1">
          <mxGeometry x="650" y="222" width="84" height="12" as="geometry" />
        </mxCell>
        <mxCell id="787iPWyd4pSy5UMx-Urj-98" value="" style="endArrow=classic;html=1;rounded=0;entryX=0.5;entryY=0;entryDx=0;entryDy=0;" edge="1" parent="1" target="787iPWyd4pSy5UMx-Urj-16">
          <mxGeometry width="50" height="50" relative="1" as="geometry">
            <mxPoint x="280" y="480" as="sourcePoint" />
            <mxPoint x="300" y="380" as="targetPoint" />
            <Array as="points">
              <mxPoint x="280" y="380" />
            </Array>
          </mxGeometry>
        </mxCell>
        <mxCell id="787iPWyd4pSy5UMx-Urj-99" value="" style="endArrow=classic;html=1;rounded=0;entryX=0.5;entryY=0;entryDx=0;entryDy=0;exitX=1.008;exitY=0.629;exitDx=0;exitDy=0;exitPerimeter=0;" edge="1" parent="1" source="787iPWyd4pSy5UMx-Urj-102" target="787iPWyd4pSy5UMx-Urj-15">
          <mxGeometry width="50" height="50" relative="1" as="geometry">
            <mxPoint x="350" y="530" as="sourcePoint" />
            <mxPoint x="450" y="390" as="targetPoint" />
            <Array as="points">
              <mxPoint x="520" y="530" />
              <mxPoint x="520" y="380" />
            </Array>
          </mxGeometry>
        </mxCell>
        <mxCell id="787iPWyd4pSy5UMx-Urj-100" value="" style="endArrow=classic;html=1;rounded=0;entryX=0.5;entryY=0;entryDx=0;entryDy=0;" edge="1" parent="1" target="787iPWyd4pSy5UMx-Urj-14">
          <mxGeometry width="50" height="50" relative="1" as="geometry">
            <mxPoint x="310" y="510" as="sourcePoint" />
            <mxPoint x="450" y="240" as="targetPoint" />
            <Array as="points">
              <mxPoint x="480" y="510" />
              <mxPoint x="480" y="170" />
            </Array>
          </mxGeometry>
        </mxCell>
        <mxCell id="787iPWyd4pSy5UMx-Urj-101" value="" style="endArrow=classic;html=1;rounded=0;entryX=0.5;entryY=0;entryDx=0;entryDy=0;" edge="1" parent="1" target="787iPWyd4pSy5UMx-Urj-13">
          <mxGeometry width="50" height="50" relative="1" as="geometry">
            <mxPoint x="260" y="480" as="sourcePoint" />
            <mxPoint x="450" y="220" as="targetPoint" />
            <Array as="points">
              <mxPoint x="260" y="170" />
            </Array>
          </mxGeometry>
        </mxCell>
        <mxCell id="787iPWyd4pSy5UMx-Urj-102" value="μC" style="whiteSpace=wrap;html=1;aspect=fixed;" vertex="1" parent="1">
          <mxGeometry x="230" y="480" width="80" height="80" as="geometry" />
        </mxCell>
        <mxCell id="787iPWyd4pSy5UMx-Urj-103" value="" style="pointerEvents=1;verticalLabelPosition=bottom;shadow=0;dashed=0;align=center;html=1;verticalAlign=top;shape=mxgraph.electrical.signal_sources.source;aspect=fixed;points=[[0.5,0,0],[1,0.5,0],[0.5,1,0],[0,0.5,0]];elSignalType=ideal;rotation=90;strokeWidth=1;" vertex="1" parent="1">
          <mxGeometry x="130" y="497.5" width="45" height="45" as="geometry" />
        </mxCell>
        <mxCell id="787iPWyd4pSy5UMx-Urj-104" value="" style="endArrow=none;html=1;rounded=0;entryX=0.25;entryY=0;entryDx=0;entryDy=0;exitX=0;exitY=0.5;exitDx=0;exitDy=0;exitPerimeter=0;" edge="1" parent="1" source="787iPWyd4pSy5UMx-Urj-103" target="787iPWyd4pSy5UMx-Urj-102">
          <mxGeometry width="50" height="50" relative="1" as="geometry">
            <mxPoint x="350" y="530" as="sourcePoint" />
            <mxPoint x="400" y="480" as="targetPoint" />
            <Array as="points">
              <mxPoint x="153" y="460" />
              <mxPoint x="250" y="460" />
            </Array>
          </mxGeometry>
        </mxCell>
        <mxCell id="787iPWyd4pSy5UMx-Urj-105" value="" style="endArrow=none;html=1;rounded=0;entryX=0.25;entryY=1;entryDx=0;entryDy=0;exitX=1;exitY=0.5;exitDx=0;exitDy=0;exitPerimeter=0;" edge="1" parent="1" source="787iPWyd4pSy5UMx-Urj-103" target="787iPWyd4pSy5UMx-Urj-102">
          <mxGeometry width="50" height="50" relative="1" as="geometry">
            <mxPoint x="350" y="530" as="sourcePoint" />
            <mxPoint x="400" y="480" as="targetPoint" />
            <Array as="points">
              <mxPoint x="153" y="580" />
              <mxPoint x="250" y="580" />
            </Array>
          </mxGeometry>
        </mxCell>
      </root>
    </mxGraphModel>
  </diagram>
</mxfile>
